<svg width="274" height="193" xmlns="http://www.w3.org/2000/svg"><g fill="#333" fill-rule="evenodd"><path fill-rule="nonzero" d="M10.254 25H2.472v-3.526h7.782v-2.17l-.87-1.536H2.472v-3.526h4.944L0 1h6.18l7.095 13.288L20.095 1H26l-7.416 13.242h4.944v3.526h-6.912l-.87 1.536v2.17h7.782v3.525h-7.782V33h-5.492zM56 130.035c-.883.579-2.04 1.051-3.472 1.417-1.402.366-2.924.548-4.57.548-2.071 0-3.914-.29-5.529-.868-1.584-.58-2.955-1.37-4.112-2.376a12.897 12.897 0 0 1-2.834-3.474 17.559 17.559 0 0 1-1.645-4.25H30l1.28-3.93h2.056a2.551 2.551 0 0 1-.046-.503v-2.604c.03-.397.076-.762.137-1.098h-3.29l1.37-3.93h2.514c.457-1.675 1.127-3.183 2.01-4.524a14.125 14.125 0 0 1 3.154-3.427 13.95 13.95 0 0 1 4.204-2.24c1.584-.517 3.29-.776 5.117-.776 1.462 0 2.834.153 4.113.457 1.31.274 2.376.624 3.199 1.051l-1.737 4.57c-.7-.426-1.568-.746-2.605-.96a16.045 16.045 0 0 0-3.244-.32 9.5 9.5 0 0 0-2.742.411 9.814 9.814 0 0 0-2.558 1.19 9.386 9.386 0 0 0-2.057 1.918c-.578.761-1.02 1.645-1.325 2.65h13.16l-1.279 3.93H38.682a16.04 16.04 0 0 0-.137 2.24v1.508l.091.457h11.698l-1.234 3.93h-9.778a7.53 7.53 0 0 0 1.096 2.422 8.189 8.189 0 0 0 1.92 1.92c.761.548 1.63.99 2.604 1.325.975.304 2.041.457 3.198.457 2.286 0 4.281-.503 5.987-1.508L56 130.035zM131.254 123h-7.782v-3.526h7.782v-2.17l-.87-1.536h-6.912v-3.526h4.944L121 99h6.18l7.095 13.288L141.095 99H147l-7.416 13.242h4.944v3.526h-6.911l-.871 1.536v2.17h7.782v3.525h-7.782V131h-5.492z"/><path d="M105.35-2.987h.823V.035c1.452.043 2.929.316 4.431.82 1.675.52 3.101 1.3 4.28 2.34l-3.86 4.267a7.533 7.533 0 0 0-2.56-1.79 7.338 7.338 0 0 0-2.291-.642v9.346c1.08.295 2.138.62 3.176.978 1.271.428 2.387.995 3.349 1.699a7.579 7.579 0 0 1 2.372 2.569c.62 1.04.93 2.34.93 3.9 0 1.53-.279 2.891-.837 4.084a9.56 9.56 0 0 1-2.28 3.029c-.961.825-2.092 1.484-3.395 1.973a15.621 15.621 0 0 1-3.315.86V37h-3.654v-3.38a17.362 17.362 0 0 1-5.589-.92c-1.86-.643-3.504-1.698-4.93-3.166l4.232-4.268a7.265 7.265 0 0 0 2.884 2.386c1.082.506 2.216.831 3.403.975V18.91a53.055 53.055 0 0 1-3.635-1.168 13.084 13.084 0 0 1-3.163-1.744 8.29 8.29 0 0 1-2.14-2.615c-.527-1.04-.79-2.325-.79-3.855 0-1.377.278-2.616.837-3.717a9.146 9.146 0 0 1 2.232-2.845c.93-.826 2-1.483 3.21-1.973 1.11-.45 2.26-.744 3.449-.883v-3.096h.318V-3h2.512v.013zm-2.831 8.126a6.045 6.045 0 0 0-2.612 1.314c-.837.703-1.256 1.636-1.256 2.8 0 .703.108 1.268.325 1.697.249.428.558.795.93 1.1.373.307.807.567 1.303.781.426.148.864.316 1.31.505V5.14zm3.654 23.328c.345-.1.675-.218.99-.356a6.9 6.9 0 0 0 1.535-.963 4.446 4.446 0 0 0 1.023-1.377 4 4 0 0 0 .418-1.836c0-.672-.155-1.239-.465-1.697a3.583 3.583 0 0 0-1.116-1.147 7.967 7.967 0 0 0-1.535-.78c-.283-.11-.567-.214-.85-.315v8.471z"/><path d="M208 31.035c-.883.579-2.041 1.051-3.472 1.417-1.402.366-2.924.548-4.57.548-2.07 0-3.915-.29-5.53-.868-1.583-.58-2.954-1.37-4.111-2.376a12.897 12.897 0 0 1-2.834-3.474 17.574 17.574 0 0 1-1.644-4.25H182l1.28-3.93h2.056a2.6 2.6 0 0 1-.045-.503v-2.604c.03-.397.076-.762.136-1.098h-3.29l1.372-3.93h2.512c.458-1.675 1.128-3.183 2.012-4.524a14.125 14.125 0 0 1 3.152-3.427 13.945 13.945 0 0 1 4.204-2.24c1.584-.517 3.29-.776 5.117-.776 1.462 0 2.834.153 4.113.457 1.31.274 2.376.624 3.199 1.051l-1.737 4.57c-.7-.426-1.568-.746-2.605-.96a16.045 16.045 0 0 0-3.244-.32 9.5 9.5 0 0 0-2.741.411 9.797 9.797 0 0 0-2.559 1.19 9.407 9.407 0 0 0-2.057 1.918c-.578.761-1.02 1.645-1.324 2.65h13.16l-1.28 3.93h-12.748a15.99 15.99 0 0 0-.138 2.24v1.508c.031.153.06.305.092.457h11.697l-1.234 3.93h-9.778a7.53 7.53 0 0 0 1.097 2.422 8.2 8.2 0 0 0 1.92 1.92 9.96 9.96 0 0 0 2.603 1.325c.975.304 2.042.457 3.199.457 2.285 0 4.28-.503 5.986-1.508L208 31.035z" fill-rule="nonzero"/><path d="M225.35 95.013h.824v3.022c1.452.043 2.928.316 4.431.82 1.674.52 3.101 1.3 4.28 2.34l-3.86 4.268a7.532 7.532 0 0 0-2.56-1.79 7.346 7.346 0 0 0-2.291-.643v9.347c1.08.294 2.138.62 3.175.978 1.271.427 2.388.994 3.349 1.698a7.569 7.569 0 0 1 2.372 2.569c.62 1.04.93 2.34.93 3.9 0 1.53-.279 2.891-.837 4.084a9.558 9.558 0 0 1-2.278 3.029c-.962.825-2.094 1.484-3.396 1.973a15.621 15.621 0 0 1-3.315.86V135h-3.654v-3.38a17.368 17.368 0 0 1-5.59-.92c-1.86-.643-3.504-1.698-4.93-3.166l4.233-4.268a7.262 7.262 0 0 0 2.883 2.386 11.18 11.18 0 0 0 3.404.975v-9.717a53.08 53.08 0 0 1-3.636-1.169 13.104 13.104 0 0 1-3.163-1.744 8.318 8.318 0 0 1-2.14-2.615c-.526-1.04-.79-2.325-.79-3.855 0-1.377.28-2.616.837-3.717a9.15 9.15 0 0 1 2.233-2.845c.93-.826 2-1.483 3.209-1.973 1.11-.45 2.261-.744 3.45-.883v-3.096h.317V95h2.512v.013zm-2.83 8.126a6.04 6.04 0 0 0-2.612 1.314c-.838.703-1.256 1.636-1.256 2.8 0 .703.108 1.268.325 1.697.248.428.558.795.93 1.1.373.307.806.567 1.302.781.427.148.864.317 1.31.505v-8.197zm3.654 23.328c.345-.1.675-.218.99-.356a6.938 6.938 0 0 0 1.534-.963 4.466 4.466 0 0 0 1.024-1.377 4 4 0 0 0 .417-1.836c0-.672-.154-1.239-.464-1.697a3.593 3.593 0 0 0-1.116-1.147 7.997 7.997 0 0 0-1.535-.78 44.024 44.024 0 0 0-.85-.315v8.471z"/></g></svg>